/* XPM */
static char *d629fde7f99845c1b6ba37d146833bce5shoaD8ydxelRPqM[] = {
/* columns rows colors chars-per-pixel */
"50 50 133 2 ",
"   c None",
".  c black",
"X  c #130D0C",
"o  c #17100F",
"O  c #1A110F",
"+  c #111111",
"@  c #1C1312",
"#  c #1D1C1B",
"$  c #221614",
"%  c #221D1C",
"&  c #2A1B1A",
"*  c #242323",
"=  c #2A2A2A",
"-  c #322220",
";  c #3A2625",
":  c #352827",
">  c #3D2826",
",  c #3E2D2B",
"<  c #313131",
"1  c #3B3B3B",
"2  c #462D2A",
"3  c #4B3432",
"4  c #423938",
"5  c #523735",
"6  c #533836",
"7  c #583A37",
"8  c #543D3B",
"9  c #5D3D3A",
"0  c #603E3B",
"q  c #4B403F",
"w  c #55413F",
"e  c #64423E",
"r  c #454545",
"t  c #4A4646",
"y  c #4C4B4A",
"u  c #5E4340",
"i  c #5B4847",
"p  c #555555",
"a  c #5A5A5A",
"s  c #654542",
"d  c #6B4541",
"f  c #6E4844",
"g  c #6A4D4A",
"h  c #704844",
"j  c #734D4A",
"k  c #75524F",
"l  c #625655",
"z  c #6E5754",
"x  c #665857",
"c  c #695856",
"v  c #695C5B",
"b  c #765450",
"n  c #785754",
"m  c #725A57",
"M  c #795956",
"N  c #725D5B",
"B  c #7A5D5A",
"V  c #6C605F",
"C  c #76615F",
"Z  c #656464",
"A  c #6C6766",
"S  c #6D6D6D",
"D  c #746260",
"F  c #7A6562",
"G  c #766967",
"H  c #7B6967",
"J  c #756E6D",
"K  c #7C6D6B",
"L  c #75706F",
"P  c gray44",
"I  c #7C7675",
"U  c #7B7A7A",
"Y  c #816664",
"T  c #826866",
"R  c #816E6C",
"E  c #85716F",
"W  c #837674",
"Q  c #8A7674",
"!  c #887977",
"~  c #837B7A",
"^  c #8D7E7C",
"/  c #86807F",
"(  c #8D817F",
")  c #838282",
"_  c #898787",
"`  c #888787",
"'  c #8C8584",
"]  c #8F8786",
"[  c #898281",
"{  c #898989",
"}  c #8A8989",
"|  c gray54",
" . c #8B8B8B",
".. c #8E8B8B",
"X. c #8D8D8D",
"o. c gray56",
"O. c #898989",
"+. c #928583",
"@. c #908584",
"#. c #928989",
"$. c #918A89",
"%. c #918A8A",
"&. c #938B8A",
"*. c #928D8C",
"=. c #918F8F",
"-. c #958D8C",
";. c #958E8D",
":. c #968E8D",
">. c #978E8D",
",. c #968F8E",
"<. c #929292",
"1. c #939393",
"2. c gray58",
"3. c #959595",
"4. c #979797",
"5. c #999392",
"6. c #9B9393",
"7. c #9A9897",
"8. c #989898",
"9. c #9B9898",
"0. c #9A9A9A",
"q. c #9B9B9B",
"w. c #9D9998",
"e. c gray61",
"r. c gray62",
"t. c #A09F9E",
"y. c #A0A0A0",
"u. c gray63",
"i. c #A2A0A0",
"p. c #A2A2A2",
"a. c #A3A2A2",
"s. c gray64",
"d. c #A4A4A4",
/* pixels */
"                        . . . . . . . . . . . . . . . . . . . . . . . . . .                         ",
"                        . . . . . . . . . . . . . . . . . . . . . . . . . .                         ",
"                        O $ $ $ $ $ $ $ $ $ $ $ $ $ $ $ $ & $ $ $ $ $ & $ O                         ",
"              . . . . X & > 2 2 2 2 2 2 2 2 2 2 2 2 2 2 2 2 2 2 2 2 2 2 2 & X . . . .               ",
"            . . . . . o ; 7 e d d d d d e d d e e e h e e d e d e e e e 7 - o . . . . .             ",
"            * = * # @ & 2 e h h h d h h h h h h j h h h h h h h h h j j e 2 & O $ * * #             ",
"        . * r a p q 2 2 5 e h h h h h h h h h h h h h h h h h h h h h h e 5 2 > 4 t y 1 # .         ",
"      . . = a ) / C s e e e h h h h h h h h h h h h h h h h h h h h h h e e w e c J P y * . .       ",
"      % * r P 4.<.R g e e h h h Y e h h h h h h h h h h h h h h j h h h e e e g D ~ U a 1 # #       ",
". . = r p S ) e.>.R g e e h h h 0 h h h h h h h h h h h h h h h h h h h j h e g D U ) S a r 1 * . . ",
". . < a ) 3.0.p.>.E g d d h h h h h h h h h h h h h h h h h h h h h h h e e e j C U ` ) U P y * . . ",
". . < Z 0.d.d.d.*.E g e e h h h h h h j e h h h h h h h h h h h h h h h h e e j C ~ { { { ) p = . . ",
". . < Z e.d.d.d.;.E g e e h h h h h h h h h h h h h h h h h h h h h h h h e e g C ~ | | { ) p = . . ",
". . < Z e.d.d.d.:.K k e e h h h h h h h h h h h h h h h h h h h h h h h d e e g D U { | | ) p = . . ",
". . < Z 4.u.u.u.&.K g e d d h h h h h h h h h h h h h h h h h h h h h h h e e g C /  .X.X.) p = . . ",
". . < a o.4.4.4.' H g e d h h h h h h h h h h h h h h h h h h h h h h h h e e g G ( 3.3.1.X.Z = . . ",
". . = p ` o.o.o.( Y e e e h h h h h h h h h h h h h h h h h h h h h h h d d e g K &.r.r.r.3.Z < . . ",
". . = p ) { { { W Y j e h e h h h h h h h h h h h h h h h h h h h h h h d d e g E ;.d.d.d.0.Z < . . ",
". . = p ) ` { { W C j e e h h h h h h h h h h h h h h h h h h h h h h h h e e k E :.d.d.d.0.Z < . . ",
". . = p ) ` { { U C e e e h e Y h h h 0 h h h h h h h h h h h h h h h h h d e g K :.d.d.d.0.S < . . ",
". . = p ) ` ` { / C g e j e j e h h h h h h h h h h h h h h h h h h h h d d e g E -.d.d.d.7.Z < . . ",
". . = p ) { { { I C g e e e e j h h h h h h h h h h h h h h h h h h f d d e e k E :.d.d.d.0.A < . . ",
". . = p ) { ` ` U C g w e e e e h h h h h h h h h h h h h h h h h d d e d e e g K :.p.d.d.0.Z < . . ",
". . = p / | | ` / C f e e e e e h h h h h h h h h h h h h h h h h d d e e e e g R :.d.d.d.0.Z < . . ",
". . = a X.<.<.<./ F g e e e e e e j e e f k C T Y Y T Y Y 0 h h d d e e e e e g R ,.d.d.d.0.Z < . . ",
". . = Z 1.e.e.0.@.H g e w e e e e e e e e M E +.( ( ( Q Y 0 0 0 e s e e 0 e s g R ,.d.d.d.0.S < . . ",
". . < Z 0.p.p.d.:.E g e e e e e e e e e f H @.p.d.d.d.( Y 0 0 0 e e 0 s e 0 e g R ,.d.d.d.0.Z < . . ",
". . < Z 1.e.e.e.X.W C z z z z z b C m C C ! ,.d.d.d.d.6.Y Y Y Y z z z z m z z N W *.e.e.e.<.a < . . ",
". . < a X.<.1.1.X./ I K K K K K K K W / ( *.7.d.d.d.d.7.( ( Q Q K K K K K K K K / ..<.<.<.| a < . . ",
". . = p ) | | X.{ { [ ` ` ` ` / ( | *.7.r.p.d.d.d.d.d.p.i.i.w.>.` ` ) ` ` ) ` ` ` { | ..| ) p = . . ",
". . * p ) { { { [ ~ I I L I I I W / $.7.p.1.) U U U U ) 5.i.w.+.! ~ I I I I I I U ) | | { ) p = . . ",
". . = p ) { { { U L V x x l x C C H ( 5.e.) Z r r r r Z / t.5.( H C N c x l x V L ) { | { ) p = . . ",
". . = p ) { { { U V i w 8 w w u f M Q >.q.S 1 + + + + 1 S 0.>.Q M f s w w 8 8 i V U O.O.O.) p = . . ",
". . = p ) { { { I v w 3 5 5 7 e d k F ^ #.A r * * * * t A ] ^ F j d 0 8 5 5 5 w v I O.O.O.) p * . . ",
". . = p U { { { U v w 5 7 9 e e h h M Y R H Z a a p a V G Q T M j d d 0 9 6 5 w v I O.O.O.) p = . . ",
". . = p ) { { { I v w 5 9 s d d h h j b M T ! X.X.X.X.~ T M b j h d f f s 9 5 w v I O.O.O.) p = . . ",
". . = p ) { { { U v u 5 9 d f f h h h h j Y ^ 6.6.6.6.^ Y j h h h h h h d 9 6 w v U { { O.) p * . . ",
". . = p ) { { { U x u 5 9 d h h h h h h h M Y Q Q Q Q T M h h h h h h h d 9 6 w v U { { O.) p = . . ",
". . = p ) { { { U x q 5 9 d h h h h h h h j b M M M M b j h h h h h h h d 9 6 w v I { { ` ) p = . . ",
". . = p ) { { { U x u 7 9 d h h h h h h h h h h f h h h h h h h h h h h d 9 6 w v I { ` ` ) p = . . ",
". . = p ) { { { I v u 3 9 d h h h h h h h h h h h h h h h h h h h h h h d 0 5 w v I O.O.O.) p = . . ",
". . = p ) { { { I v u 5 w d h h h h h h h h h h h h h h h h h h h h h h d 9 6 w v I O.O.O.) p * . . ",
". . * p ) ` { { U v w 5 9 s d f h h h h h h h h h h h h h h h h h f f d s 9 6 w v I O.O.` ) p = . . ",
". . = p ) ` { ` I v w 5 7 9 e d d h h h h h h h h h h h h h h h h d d e 9 7 3 w v I O.O.` ) p = . . ",
". . = p ) { { ` I v u 3 5 6 9 e d h h h h h h h h h h h d h h h h d 0 9 5 5 5 i x U { { { ) p = . . ",
". . = p U ~ ) ) P p 8 3 3 2 3 7 0 e d d d e d d e d d e d d d d d 0 9 3 3 2 3 4 a P ) ) ) U y = . . ",
". . * 1 p p p p y 4 : - - - - ; 2 2 2 2 2 2 2 2 2 2 2 2 2 2 2 2 2 2 ; - - - - : 4 y p p p p 1 * . . ",
"    # * = = = = * % @ + X o @ @ $ $ $ $ $ $ $ $ $ $ $ $ $ $ $ $ @ $ @ o o o o @ % * = * = = * #     ",
"      . . . . . . . . . . . . . . . . . . . . . . . . . . . . . . . . . . . . . . . . . . . .       ",
"      . . . . . . . . . . . . . . . . . . . . . . . . . . . . . . . . . . . . . . . . . . . .       "
};
