/* XPM */
static char *f5e71fa56f87416cbad06f13e986c609fPxYery2JnBIWh4O[] = {
/* columns rows colors chars-per-pixel */
"50 50 159 2 ",
"   c None",
".  c #060608",
"X  c #080709",
"o  c #09090B",
"O  c #160E0F",
"+  c #0F0F11",
"@  c #180F10",
"#  c #121214",
"$  c #1A1111",
"%  c #171719",
"&  c #1D1D1F",
"*  c #251616",
"=  c #281817",
"-  c #2A1919",
";  c #371F1E",
":  c #381F1D",
">  c #39211F",
",  c #232325",
"<  c #2D2C2E",
"1  c #312322",
"2  c #3E2422",
"3  c #2F2F30",
"4  c #323233",
"5  c #3C3434",
"6  c #373739",
"7  c #39393B",
"8  c #462623",
"9  c #4B2926",
"0  c #4D2D2B",
"q  c #542E2A",
"w  c #57302D",
"e  c #5B322E",
"r  c #60342F",
"t  c #633631",
"y  c #663833",
"u  c #6C3B36",
"i  c #643C38",
"p  c #6E3D38",
"a  c #733F39",
"s  c #73423C",
"d  c #7F453F",
"f  c #444445",
"g  c #474748",
"h  c #4D4D4F",
"j  c #544046",
"k  c #5D454A",
"l  c #564E4E",
"z  c #4B4653",
"x  c #564852",
"c  c #5E4B54",
"v  c #545455",
"b  c #5B5B5B",
"n  c #6A4642",
"m  c #6C4945",
"M  c #6E4D49",
"N  c #734742",
"B  c #744B46",
"V  c #764D48",
"C  c #77524E",
"Z  c #79514D",
"A  c #624A51",
"S  c #614E58",
"D  c #695157",
"F  c #63515C",
"G  c #68525B",
"H  c #625858",
"J  c #7A5551",
"K  c #7D5955",
"L  c #7D5C59",
"P  c #434F65",
"I  c #445066",
"U  c #465268",
"Y  c #4A576D",
"T  c #575567",
"R  c #5D5869",
"E  c #4D5972",
"W  c #515D76",
"Q  c #515E78",
"!  c #6D5661",
"~  c #6E5862",
"^  c #725B63",
"/  c #7C5F69",
"(  c #556076",
")  c #56647C",
"_  c #5D697E",
"`  c #636364",
"'  c #73626A",
"]  c #7C646B",
"[  c #646376",
"{  c #676478",
"}  c #747474",
"|  c #777778",
" . c #7A7A7B",
".. c #814640",
"X. c #854842",
"o. c #914F48",
"O. c #945149",
"+. c #9A544C",
"@. c #82615D",
"#. c #88666F",
"$. c #80686E",
"%. c #886C69",
"&. c #846C71",
"*. c #8D7471",
"=. c #857D7E",
"-. c #897C7B",
";. c #917C7A",
":. c #576580",
">. c #586680",
",. c #5C6881",
"<. c #5E6D89",
"1. c #616D85",
"2. c #606F8B",
"3. c #657085",
"4. c #63718C",
"5. c #69758B",
"6. c #6C788E",
"7. c #7B7A87",
"8. c #6A7996",
"9. c #6F7F9F",
"0. c #717D95",
"q. c #7E828F",
"w. c #75819A",
"e. c #7C879C",
"r. c #7E899E",
"t. c #7483A2",
"y. c #828283",
"u. c #878788",
"i. c #8E8D8D",
"p. c #938280",
"a. c #9A8D8C",
"s. c #948B8A",
"d. c #888E9A",
"f. c #8C8B93",
"g. c #8C929C",
"h. c #929292",
"j. c #9C9291",
"k. c #9B9B9B",
"l. c #A39D9C",
"z. c #818DA4",
"x. c #8592AD",
"c. c #8895AF",
"v. c #9699A2",
"b. c #8A97B0",
"n. c #8D9AB3",
"m. c #939FB5",
"M. c #9AA5BC",
"N. c #9EA9BE",
"B. c #A4A4A4",
"V. c #A7A7A8",
"C. c #ADADAD",
"Z. c #B4B4B5",
"A. c #BDBDBD",
"S. c #A3ADC2",
"D. c #C8C8C8",
"F. c #D7D7D7",
"G. c #E4E4E4",
"H. c #ECECEC",
"J. c #FAFAFA",
/* pixels */
"                                                                                                    ",
"                                                                                                    ",
"                                                                                                    ",
"                                                                                                    ",
"                                                                                                    ",
"                                                                                                    ",
"                                          c.c.c.c.c.c.c.c.                                          ",
"                                        b.c.c.c.c.c.c.c.c.b.                                        ",
"                                        b.c.c.c.c.c.c.c.c.c.                                        ",
"                        b.b.c.c.c.b.0.U w.c.c.c.c.c.c.c.c.w.U 0.x.b.b.b.c.c.                        ",
"                      c.b.x.x.b.c.c.0.I 0.n.n.n.m.b.n.n.m.w.I 0.c.c.b.b.c.c.c.                      ",
"                      c.b.x.b.b.c.c.0.U r.S.S.S.S.S.S.S.S.t.I 0.c.b.x.x.c.c.c.                      ",
"P 1.c.x.c.x.x.x.c.1._ x.x.c.b.x.c.b.0.I 8.n.b.b.b.b.b.b.c.0.P 0.b.x.b.b.c.c.x.,.2.x.x.x.x.x.c.x.3.P ",
"P 3.c.c.c.c.c.c.c.1.( z.b.n.b.n.n.b.w.P <.9.9.9.t.9.9.9.9.<.U 0.n.b.b.n.n.n.z.( 1.c.b.b.c.c.c.c.1.P ",
"P 1.c.c.c.c.c.c.c.,.( m.N.N.N.N.N.N.t.U <.9.9.9.9.9.9.9.9.<.U z.N.N.N.N.N.N.m.( <.b.b.x.c.c.c.c.2.P ",
"P 2.c.c.c.c.c.c.c.1.( x.m.n.m.n.m.m.w.U <.9.9.9.9.9.9.9.9.<.U 0.m.n.m.n.n.m.z.W 1.x.b.b.c.c.c.c.1.U ",
"P 2.b.b.b.c.b.b.c.<.E 8.9.9.9.9.9.9.2.P <.9.9.9.9.9.9.9.9.<.P 2.9.9.9.9.9.9.8.E 1.b.b.b.n.b.b.b.5.P ",
"P 8.N.M.N.N.N.M.N.4.E 8.9.t.9.9.9.9.2.U <.9.9.9.9.9.9.9.9.<.U 2.9.9.9.9.9.9.8.E 5.N.N.N.N.N.N.N.6.P ",
"P 5.n.M.m.m.m.m.M.<.E 8.9.9.8.t.9.9.1.z T [ { { { { { { [ T z 1.9.9.9.9.9.9.8.E 2.m.m.m.m.m.m.m.5.P ",
"P ) 9.t.9.t.9.t.t.) Y 8.9.9.t.t.9.9.{ e 9 9 q e e e e q 8 9 e { 9.9.9.9.9.9.8.E :.9.9.9.9.t.9.9.:.P ",
"P :.9.9.9.9.9.9.8.R j c S A x c S S A q 9 8 q e e e e q 8 8 e k S S c x c S A j ! 9.9.9.9.9.9.9.:.P ",
"P :.t.9.9.9.9.9.t.c w e w q 8 9 r e e e q 9 r r e e e e 9 q e e e e 9 8 q e e q T 9.9.9.9.9.9.9.:.P ",
"P ) 9.9.9.9.9.9.t.F e w w w 8 w u u u u r r y u u u u u e t u u u u q 8 q e e e F 9.9.9.9.9.9.9.:.P ",
"P E :.:.:.:.:.:.:.A t t t e w e u u u u r r y u u u u u t t u u u u e q t t t t c :.:.:.:.:.:.:.E P ",
"P Y ( ( ( ( ( ( W D N B V V t t u u u u t w w w e e e e q e u u u u t t u u u u A ( W Q ( ( ( Q Y P ",
"I 4.m.m.m.m.m.m.M.f.=.=.s.s.m t u u u u t 9 * $ @ @ @ @ O ; u u u u t t u u u u $.v.M.m.m.m.m.m.5.P ",
"I 5.b.n.n.n.b.n.b.g.i.k.B.l.M t s y s u 9 > < f v v `  . .H 2 e u u t t u u u u ] n.n.n.m.c.n.n.2.P ",
"P ) 9.9.9.9.9.w.w.q.i.l.l.j.m t u u y y - , b y.k.k.A.G.H.l., 0 y u t e u u u u ~ 9.9.9.9.9.9.9.) P ",
"P :.9.9.9.9.9.9.9.[ C J K C y t u u q * 4 b i.` 4 4 7 h | k.A.x ; u t t u u u u ~ 9.9.9.9.9.9.9.,.P ",
"P :.9.9.9.9.9.9.t.! u u u s e t u u 9 X 6 } B.v X X o + f k.J.b * y t e u u u u ~ 9.9.9.9.9.9.9.) P ",
"P :.9.9.9.9.9.9.9.! u u u y r t u s 9 o 7 } V.v o o o # g k.J.b * y t r u u u a ~ 9.9.9.9.9.9.9.:.P ",
"P :.9.9.9.9.9.9.t.L u u u u r t y 2 1 7 } k.C.f.} } } | u.V.D.Z.=.1 8 r u @.;.V ~ 9.9.9.9.9.9.9.:.P ",
"P Q 4.4.4.4.4.4.4.! u u u u t t y * , b i.C.C.C.C.C.C.C.C.C.C.G.Z.% > e u *.l.J G 4.4.4.4.4.4.4.Q P ",
"P U U U U U U U P x u u u u r t y * , b i.C.C.C.C.C.C.C.C.C.C.G.Z.# > r u *.l.Z k U U U U U U U P U ",
"P _ e.e.e.e.e.r.e.^ u u u u r t y * , b i.C.C.C.k.R h v h.C.C.G.Z.# > r u *.l.Z ^ e.e.e.e.e.e.e.) P ",
"P 6.M.M.M.M.M.N.M.$.u u u u r t y * , b i.C.C.C.h., . % y.C.C.F.V.# > r a *.l.J $.N.M.M.M.M.M.M.6.P ",
"P ,.t.t.t.t.t.t.t.^ u u u u r t y * , b i.C.C.C.i., . % y.C.C.Z.y.# > r y *.l.J ~ t.t.t.t.t.t.t.,.P ",
"P :.9.9.t.t.9.9.9.^ u u u u r t y * , b i.C.C.C.h., . % y.C.C.C. .# > r u *.l.Z ~ 9.t.9.t.t.t.t.:.P ",
"P :.9.9.t.9.9.9.9.^ u u u u r t y * , b i.C.C.C.h.6 & < u.C.C.C. .+ > r u %.a.Z ~ t.9.9.9.9.9.9.) P ",
"P :.9.9.9.9.9.9.9.~ u u u u r t y * , b i.C.C.C.B.h.u.i.B.C.C.C. .# : e u s Z s ! t.t.9.9.9.9.9.,.P ",
"P :.9.9.9.9.9.9.9.~ u u p u e t t * , b i.C.C.C.C.C.C.C.C.C.C.C.7.# ; r u u u p ! t.9.9.9.9.9.9.) U ",
"P ) 9.9.8.9.8.9.8.~ u u u u t t u - , v u.B.l.B.B.B.B.B.B.B.B.B.} @ > r u p u u ! 8.9.9.8.9.9.8.) P ",
"P Y E ( Q Q W W Q A u p u u r t u q 8 , 3 7 7 7 6 6 7 6 6 6 7 7 0 0 q r u u u u c E W W Q E Q E U U ",
"I E 3.3.3.<.3.3.1.' J J L L i t u u q - * * = = = = = = * * - - 2 i t r u u u u D 3.3.3.3.3.3.2.W P ",
"P 8.N.S.S.S.S.S.S.v.u.i.k.k.m t u u u u r r u u u u u y r r u u u u t e u u u u | S.S.S.S.S.S.S.8.P ",
"P <.x.c.x.x.x.x.x.d.h.k.V.l.B t a u u u r r u u u u u u r t u u u u t t u u u u ' n.r.r.x.x.x.x.1.P ",
"I :.w.t.9.9.9.9.9.7.-.a.j.p.n t u u u u t r u u u u u u r r u u u u t e u u u u ^ 9.9.t.9.9.t.t.:.P ",
"P ) 9.9.9.9.9.9.t.^ s N N n t t u u u u r r u u u u u y r r u u u u t t u p u p ~ 9.9.9.9.9.9.9.:.P ",
"P :.9.9.9.9.9.9.9./ X.X.X.d t u X.X.X.X.u t X.X.X.X.X...y u X.X.X.X.u t ..X.X.X./ 9.9.9.9.9.9.9.,.P ",
"P :.9.t.9.9.9.9.9.$.+.+.+.o.u a +.+.+.+.a u O.+.+.+.+.O.u a +.+.+.+.a u o.+.+.+.#.9.9.9.9.9.9.9.,.P "
};
