/* XPM */
static char *_386e1db300441f7d3cf616742e4e17eOLGlAKsCcQeW8ham[] = {
/* columns rows colors chars-per-pixel */
"50 50 90 1 ",
"  c None",
". c #412320",
"X c #412420",
"o c #544A56",
"O c #424E64",
"+ c #434F65",
"@ c #445066",
"# c #455066",
"$ c #455166",
"% c #445067",
"& c #455167",
"* c #465268",
"= c #49566D",
"- c #4B576D",
"; c #4C5971",
": c #4D5972",
"> c #525E74",
", c #505D76",
"< c #535F76",
"1 c #515E78",
"2 c #655F6C",
"3 c #546076",
"4 c #556076",
"5 c #576379",
"6 c #56647E",
"7 c #5D697E",
"8 c #576580",
"9 c #586680",
"0 c #5B6882",
"q c #5C6880",
"w c #5E6D89",
"e c #606C83",
"r c #606D84",
"t c #616D85",
"y c #616E86",
"u c #636F87",
"i c #606F8B",
"p c #616F8B",
"a c #627087",
"s c #657085",
"d c #647088",
"f c #657188",
"g c #657189",
"h c #62718D",
"j c #687489",
"k c #69748A",
"l c #68748B",
"z c #6B778D",
"x c #6C788E",
"c c #647491",
"v c #697897",
"b c #6F7C94",
"n c #6C7C9C",
"m c #6F7E9F",
"M c #6F7F9F",
"N c #707B90",
"B c #717D96",
"V c #717D97",
"C c #727E96",
"Z c #6F809F",
"A c #738098",
"S c #758199",
"D c #76839C",
"F c #7C879C",
"G c #7E899E",
"H c #7080A0",
"J c #7786A4",
"K c #808BA1",
"L c #828EA7",
"P c #8390A9",
"I c #8491A9",
"U c #8492AD",
"Y c #8793AD",
"T c #8895AF",
"R c #8995AF",
"E c #8896B0",
"W c #8A97B0",
"Q c #8A97B1",
"! c #8C99B2",
"~ c #8D99B3",
"^ c #8E9BB4",
"/ c #8F9BB4",
"( c #929DB3",
") c #949FB3",
"_ c #939FB7",
"` c #9AA5BC",
"' c #9DA8BE",
"] c #9FAABF",
"[ c #A2ACC1",
"{ c #A4AEC2",
/* pixels */
"                                                  ",
"                                                  ",
"                                                  ",
"                                                  ",
"                                                  ",
"                                                  ",
"                     TRRRRRRR                     ",
"                    ETTTTTTTTE                    ",
"                    ETYETTEEYE                    ",
"            TTTTRTV@DEEETTYEED@VTTTTRT            ",
"           TTTYETTV+V^//(///^V@VTTEETTT           ",
"           TTEEETTV+G[[{[[[[[G@VTTTYTTT           ",
"OaYYYYYYYe7PYYEYTTB+NEEQQQEEEbOVEYEEEYP7eYYYTTYYsO",
"OuTTTTTTYu3L!^!!^^C+wMHMMMHMDw%A!!!!!!L4uYTTTTTTu+",
"@uTTTTTTYe5(]]]]][K@wMMMMMMMMw*J]]]]]](5eTTTTTTEu+",
"OdTTTTTTEw4I^^^(/(S@iMMMMMMMMu*S///(^^I,uTTTTTTEu+",
"+uEEETEETu:vMMMMMMw%wMMMMMMMMw@iMMMMMMv:uTTWEEEEd+",
"+x]]]']]]k:vMMMMMMp+wMMMMMMMMw@iMMMMMMv:l']]']]'xO",
"+l__)___(d:vMMMMMMc*wZZZZZZZDw@cMMMMMMv:d_(____)l+",
"+9HHHMHHH6:vMMMMMMM            MMMMMMMv:6HHHHHHM9+",
"+9MMMMMMHp                              hMMMMMMM9+",
"+9MMMMMMM                                MMMMMMM8O",
"O8MMMMMMM                                MMMMMMM9+",
"+:8888888                                9888888:+",
"+-<<<4445                                <<<444<=+",
"+l)))))))                                ))))))(k+",
"+u/~~~(~/                                (Q^^^//d@",
"+9MMMMMMM                                MMMMMMM9O",
"+8MMMMMMM                                MMMMMMM8@",
"+8MMMMMMM                                MMMMMMM8O",
"+8MMMMMMM                                MMMMMMM8O",
"+8MMMMMMM                                MMMMMMM8@",
"+1phpcphh                                hhhhhhh1O",
"+%*******                                ********+",
"+qFFFFFFF                                FFFFFFF7O",
"+x```````                                ```````x+",
"+qJJJJJJJ                                JJJJJJJ0O",
"O9MMMMMMM                                MMMMMMM9+",
"+8MMMMMMM                                MMMMMMM8O",
"+9MMMMMMM                                MMMMMMM9+",
"O6MMMMMMM                                MMMMMMM6@",
"O6nMnnnMM                                MnMnnnn6+",
"%=,,:,,,:                                ,,,,,:,=+",
"@,sssssad                                sssssss>O",
"Ox{{[{{{{                                {[[{[[{bO",
"@uUYUUYUY2XXXXXXXXXXXXXXXXXXXXXXXXXXXXXX2UYUYUUYu@",
"%8ZMMMMMMo....X.........................oHMMMMHH8O",
"O6MMMMMMMo.............................XoHMMMMMM9O",
"%6MMMMMMMo..............................oMMMMMMM8O",
"%8MMMMMMMo..............................oMMMMMMM8@"
};
