/* XPM */
static char *_ba1782f848143c6ae0aea40a9d7cb539K6mhS4RJppGIOXl[] = {
/* columns rows colors chars-per-pixel */
"50 50 71 1 ",
"  c #59413E",
". c #58413F",
"X c #5A413E",
"o c #564141",
"O c #544043",
"+ c #564142",
"@ c #534044",
"# c #534045",
"$ c #514047",
"% c #524047",
"& c #544044",
"* c #564245",
"= c #554247",
"- c #5B4343",
"; c #594345",
": c #584347",
"> c #5C4444",
", c #5C4445",
"< c #564348",
"1 c #594348",
"2 c #5C4549",
"3 c #5E4649",
"4 c #5C454A",
"5 c #614542",
"6 c #634643",
"7 c #614645",
"8 c #624746",
"9 c #664845",
"0 c #694945",
"q c #6A4A46",
"w c #6B4B47",
"e c #6D4C47",
"r c #614749",
"t c #61484B",
"y c #64494A",
"u c #62484C",
"i c #63494C",
"p c #694B4A",
"a c #6A4B4A",
"s c #6D4C4B",
"d c #684B4D",
"f c #714E49",
"g c #724F4B",
"h c #744F4B",
"j c #74504B",
"k c #76504B",
"l c #74504C",
"z c #75504C",
"x c #77514C",
"c c #77514D",
"v c #78524D",
"b c #79524D",
"n c #79524E",
"m c #7C544E",
"M c #745150",
"N c #765250",
"B c #765251",
"V c #7F5550",
"C c #805651",
"Z c #825751",
"A c #845853",
"S c #855953",
"D c #845954",
"F c #865954",
"G c #875A54",
"H c #885A54",
"J c #8A5B55",
"K c #895B56",
"L c #8A5B56",
"P c #8C5C56",
"I c #8C5D57",
/* pixels */
"$$2pzvzvxxxxxxxxxgy>$$$$$$$4pkvvxxxxxxxxxxhy-%%$$$",
"$$2pzzxxxxxxxxxxxky2$$$$$$$4pghvxxxxxxxxxxhp2%$$$$",
"22yskxxxxxxxxxxxvzgdt4=%<14rskvkxxxxxxxxvvxsdt4<$$",
"ppsgkxxxxxxxxxxxzvzBBd4%<rpsgkkvxxxxxxxxvhvhBBd1$$",
"zkzkvkvkxxxxxxxxvvZFFgi%2pzzzkvkxxxxxxxxvvvZAABt$$",
"zvzvkvkvxxxxxxxxvvZFKBi%2pzkvvkvxxxxxxxxxxvCKJBd$$",
"vzvkvkvkxxxxxxxxkvZFKBi%ipzvvkvkxxxxxxxxxxvZAKBr$$",
"xvkvkvkvxxxxxxxxvvZFKBi%2pkvkvkvxxxxxxxxxxvZAKBd$$",
"xxxxxxxxxxxxxxxxzvVGKBt<2svkvkvkxxxxxxxxvvvVGKBt$$",
"xxxxxxxxxxxxxxxxvBVGKBd$>skvkvkvxxxxxxxxvhvZGKBd$$",
"xxxxxxxxxxxxxxxxvvVKKBt$rphvvkvkxxxxxxxxvhvZGKBt$$",
"xxxxxxxxxxxxxxxxvvVGKBt$2pzvkvkvxxxxxxxxxvBVGKBt$$",
"xxxxxxxxxxxxxxxxvvZHKBt$2pvkvkvkxxxxxxxxvkvZKKzt$$",
"xxxxxxxxxxxxxxxxvvZFKBd$rskvkvkvxxxxxxxvhvvZFFBd$$",
"xxxxxxxxxxxxxxxvvmVKKBt%2pvkvkvkxxxxxxxvhhmZKKBi$$",
"xxxxxxxxxxxxxxvmZAAKGBd%>skvkvkvxxxxxxvvmZZKKFBi$$",
"xxxxxxxxvvhvvvzZAKKPKBt<4phxxxxxvhvhvxxxZZKJPKBi$$",
"hhxxBvxxvvvvvvvZFPPKGkt$2yhhxxvvvzvvvvmvFFPJKHhd$$",
"00hxACCCZZZmZZZGJPFmkp;$>7qgxmAZZZVZAZZAKPPFBkp1$$",
"590xAHHKKAKAKGJPPJvg9>=$<-5sxFHFFFKKFFFFJJHBg9>&$$",
"XX9xKKJJJJKJKKHPJFg9Xo@%Oo>9xFJJJKKIJIJJJJAh9X++$$",
"X+7sxxvvvvvBvvvvvks>oo%$$Oo7smvkvvvvvvvvvmhp7+%%$$",
"&%-700000qqqqqqqq97;%$$$o%$;7qwqq9qqqqqqq007-%&@$$",
"%&%+XXXXXXXXXXXXXXo=%%$$%%o$oXXXXXXXXXXXXXX+%%%%$$",
"%%<-79665955956695-<$$$$$$$<>57666666656665><$%%$$",
"%%17qqeqeeeeeeeeqpt-$$$$$$$;7seqeeeeeeeeesqt<$$%$$",
"$%2pkkvkkkkkzkkkhhd<$$$$$$$2ykvkkzzzvkzkkvgy4%%%$$",
"=2rsxvkvvvzvvvzvzzgdt2<$$=>yskxvkvvkvkvvvkzgtr4<$$",
"psshhvvkvkvkvkvkvvvBMt4$=iaskzzvkvkvkvkvkvkvBMt1$$",
"hzzhhvkvkvkvkvkvvvVFGBt<2azkkzxvvkvkvkvkvkzZFFBd$$",
"zzvkvkvkvkvkvkvkvvZFJBy$2akvxxxxkvkvkvkvkvvZGKBt$$",
"vvkvkvkvkvkvkvkvkkZFJBi=2akxxxxxvkvkvkvkvzvZGKBr$$",
"vkvkvkvkvkvkvkvkzvZGKBt$rshvxxxxxxxxxxxxxxvZFHBy$$",
"kvkvkvkvkvkvkvkvvvZGKBt$2dhvxxxxxxxxxxxxxxkZKHBt$$",
"vkvkvkvkvkvkvkvkvvZDKBd$2szvxxxxxxxxxxxxxxvZGKBd$$",
"kvkvkvkvkvkvkvkvzzZGJvt%2phvxxxxxxxxxxxxxxvAKKBt$$",
"vkvkvkvkkvkvvkvkzmZGKBi$rphvvxxxxxxxxxxxvvvZFKBt$$",
"kvkvkvkvvkvkkvkvzmZGKzi$rpkxxxxxxxxxxxxxzzvVGKBt$$",
"vkvkvkvkkvkvkvvkmzVJKBi$2pvxxxxxxxxxxxxxvvzZGKBd$$",
"kvkvkvkvvkvkvkvvzBZJKBi$2shvxxxxxxxxxxxxvvVVKKBt$$",
"xxxxxxhvkvkvkvvvVZGJJBi$2pkkxxxvkvhvvkvhmmZFKPhd$$",
"xxxxxvvxvkvvvkxZDKJJJBd$rpkkxxxzvhvvkzvkZFKKIGBt$$",
"hhhhxvxxvkvxvxmZJIKKDMt$2pkkxxkmvvzvvvkZZKJKKGBr$$",
"qqgxCACZZCZZZCCHJGFmla4$47qhkZVZZAZZZZZAFKIGVhp4$$",
"55sxHFFHHJAJKHHKPJmj9-=$=;5qvFFFAJHFKHFJKPKms9><$$",
"XX0vKKKKKJJJKKKPKFk9;oo$ooX0vHPKJJKKKPKHKKGz9o++$$",
"++7sxvvvvvvvvxvvkkq-o@%%%oo7sxxxvvxvzvvvvvhq;+%%$$",
"&&-50000qq0qq00sqq7;@%$$$o$-76q9q0qqqqqqqqq5-@@%$$",
"&%@@X.X..X.X.    .+@%$$$$$$@@XX.XXX+X+XX.XX.@@$$$$",
"%%%+.X.XXXX.     ..@$$$$$$$@....XXXXXXXXX..@@$$$$$"
};
