/* XPM */
static char *_bf4fca83efa4e8c83251c7f28af79eez6w3RVuY4JUAKdCS[] = {
/* columns rows colors chars-per-pixel */
"50 50 187 2 ",
"   c None",
".  c #050506",
"X  c #060608",
"o  c #0A0709",
"O  c #0B0A0C",
"+  c #140A0C",
"@  c #1C0C0D",
"#  c #0E0E10",
"$  c #150E11",
"%  c #131215",
"&  c #161619",
"*  c #1A171A",
"=  c #1A1A1D",
"-  c #1D1113",
";  c #260D0F",
":  c #250F10",
">  c #2B1011",
",  c #251416",
"<  c #321213",
"1  c #3B1415",
"2  c #3B1C1E",
"3  c #1C1D21",
"4  c #211F23",
"5  c #1E2024",
"6  c #212225",
"7  c #262629",
"8  c #2A262A",
"9  c #272B2E",
"0  c #2B2B2E",
"q  c #2D2C30",
"w  c #382D30",
"e  c #2F3032",
"r  c #343336",
"t  c #3A353A",
"y  c #3B393E",
"u  c #333438",
"i  c #372427",
"p  c #481719",
"a  c #441719",
"s  c #531B1C",
"d  c #5D1E1E",
"f  c #651F20",
"g  c #452427",
"h  c #53282B",
"j  c #402F33",
"k  c #493438",
"l  c #5F3923",
"z  c #6C2222",
"x  c #672020",
"c  c #782626",
"v  c #6B3234",
"b  c #77393B",
"n  c #704A37",
"m  c #3F3C41",
"M  c #423F44",
"N  c #673F40",
"B  c #3B4145",
"V  c #454146",
"C  c #47464A",
"Z  c #4B4B4E",
"A  c #48454B",
"S  c #4C4C52",
"D  c #474B50",
"F  c #4C545A",
"G  c #4B5156",
"H  c #56555A",
"J  c #59555C",
"K  c #50595F",
"L  c #5D5A5F",
"P  c #585256",
"I  c #544A4F",
"U  c #6A4448",
"Y  c #66585E",
"T  c #774D52",
"R  c #5C5C63",
"E  c #625E65",
"W  c #566066",
"Q  c #5C6268",
"!  c #646366",
"~  c #66646A",
"^  c #6D676E",
"/  c #736868",
"(  c #6B6C72",
")  c #666A71",
"_  c #726E76",
"`  c #6F767E",
"'  c #73747C",
"]  c #79757D",
"[  c #79797B",
"{  c #832626",
"}  c #852929",
"|  c #8D2B2B",
" . c #952C2C",
".. c #9E2E2E",
"X. c #89383A",
"o. c #983C3E",
"O. c #A32F2F",
"+. c #A22F30",
"@. c #AC3333",
"#. c #AB3838",
"$. c #B43E34",
"%. c #9A5125",
"&. c #A05630",
"*. c #B94532",
"=. c #C5542D",
"-. c #D46628",
";. c #9D4F52",
":. c #9B5458",
">. c #9E4547",
",. c #A14649",
"<. c #A14A4C",
"1. c #AA5A46",
"2. c #A04F52",
"3. c #B05D48",
"4. c #8E6759",
"5. c #B66648",
"6. c #955D62",
"7. c #9A5D62",
"8. c #946267",
"9. c #91666C",
"0. c #9B6B65",
"q. c #88767E",
"w. c #85747C",
"e. c #93737A",
"r. c #9F776C",
"t. c #BB6C60",
"y. c #A37663",
"u. c #A56364",
"i. c #C07044",
"p. c #C87878",
"a. c #C1726B",
"s. c #747C83",
"d. c #7C7B83",
"f. c #847C85",
"g. c #897C82",
"h. c #867F88",
"j. c #7C848C",
"k. c #768088",
"l. c #7A8891",
"z. c #858485",
"x. c #84818A",
"c. c #8D8B8B",
"v. c #898690",
"b. c #848C95",
"n. c #8A8A94",
"m. c #808F98",
"M. c #8C8F99",
"N. c #86959E",
"B. c #8E939D",
"V. c #969697",
"C. c #90969F",
"Z. c #9A9A9A",
"A. c #92858D",
"S. c #B9999B",
"D. c #BE8F8D",
"F. c #8B98A0",
"G. c #9297A0",
"H. c #919AA3",
"J. c #939FA9",
"K. c #9999A0",
"L. c #97A3AD",
"P. c #98A7B1",
"I. c #9BACB6",
"U. c #9DAFB9",
"Y. c #9FB1BA",
"T. c #A9A5AC",
"R. c #ABAFB2",
"E. c #A1B2BB",
"W. c #ACB2B9",
"Q. c #B5B5B5",
"!. c #BDBCBC",
"~. c #CEA5A2",
"^. c #E3B9B9",
"/. c #A9B9C1",
"(. c #BAC6CD",
"). c #C0C2C4",
"_. c #C8C9CB",
"`. c #D8C9CA",
"'. c #C1CCD2",
"]. c #C9D3D8",
"[. c #D7D8DA",
"{. c #DFE4E7",
"}. c #E6E6E6",
"|. c #E1E6E9",
" X c #E9EDEF",
".X c #FDFCFC",
"XX c #F6F6F6",
/* pixels */
"                                X X X X X X X X X                                                   ",
"                                X X X X X o X X X                                                   ",
"                                o o @ > 1 < 1 < < >                                                 ",
"                                X O < s z z z x s < o                                               ",
"                                X + p c O.+.+.+.z 1 o X                                             ",
"                                X + a x { X.o.>.v 2 o X X                                           ",
"                                    < a s v T :.U i o X X X X X X X X X                             ",
"                                      + - k Y w.P w o X X X X X X X X . O                           ",
"                                    3 3 7 A ~ d.~ A 9 9 9 9 9 9 9 9 9 9 9 5                         ",
"                                  $ 0 m S E _ f.' ) W R W W W W W W W W K B 5                       ",
"                                X % t J _ ] d.f.v.b.F.F.F.l.l.F.N.N.N.N.k.F 6 X                     ",
"                              = 3 9 S ( v.h.v.v.B.J.I.I.Y.U.U.Y.I.I.I.I.l.K 6 O X                   ",
"                            % q m S E d.F.F.F.F.J.P.I.I.Y.U.I.I.I.U.I.U.l.K 5 . X                   ",
"                          X & y J _ x.F.P.P.L.L.P.I.U.I.U.U.I.U.U.U.I.I.l.K 9 . X                   ",
"                        X X * M ( v.G.L.I.Y.E./.E./././././././././././.J.W 7 . X                   ",
"                        X X = D s.G.J.P.I.(.(.].].].].].].].].].].].].].E.( e X X                   ",
"                        X X 3 D s.L.P.P.Y.(.[. X X X X X X X X X X X X X).[ e . .                   ",
"                        X X 3 F l.I.I.U.E.'.|..XXX X}.}.}.}.}.}.}.}.}.}.!.[ e . .                   ",
"                        X X 3 G l.I.U.I.E.'.|..X[.!.V.V.V.V.V.V.V.V.V.V.[ Z 6 o O                   ",
"                        X X 3 F l.I.U.I.E.'.|..X).c.Z C C C C C C C C C y 9 % . X                   ",
"                        X X 3 G l.I.I.I.Y.(.|..XQ.! & & & % % O o o # % $ # o X X                   ",
"                        X X 3 D s.J.L.P./.'.|..X_.Z.! ! ! ! Z e # = y H H r & X X                   ",
"                        X X = V ( M.J.L.Y.'.|..X}._.Q.Q.Q.Q.z.G & e ! Z.V.L 7 X X                   ",
"                        X X & m E h.M.J.Y.(.|..X.X.X.X.X.X.X!./ 6 B c.[.`.d.e X X                   ",
"                        X X % q A R ' v.J.W.).[.`.`.^.^.^.^.D.4.l n y.~.S./ i X X                   ",
"                        X X O 3 7 u R s.M.G.T.T.S.D.p.p.p.p.t.3.%.&.5.t.u.N 4 X X                   ",
"                        X X X X o & m E h.h.h.h.0.2.#.@.#.#.*.=.-.-.=.$. .h : X X                   ",
"                          X X X X $ w T 9.9.9.9.6.;.<.<.,.<.1.5.i.5.3.<.X.h , X X                   ",
"                              X X + g N ;.;.;.;.:.6.8.6.6.6.0.0.y.y.0.0.T k , X X                   ",
"                                X + s } #.#.#.#.;.8.f.f.f.f.g.g.g.g.g.g./ V 3 X X                   ",
"                              < + @ g b ,.,.,.<.7.e.n.n.n.n.n.n.n.n.n.n.' D = X X                   ",
"                            } p @ @ j U 6.6.6.6.e.A.G.H.H.G.H.H.H.H.H.H.k.S 6 X X                   ",
"                          @. .d : & t E q.q.g.g.h.G.P.P.P.P.P.P.P.I.I.P.l.R 5 X X                   ",
"                        @.@. .d : $ y E f.f.f.f.h.j.l.l.l.l.l.l.l.l.F.J.j.F 5 X X                   ",
"                      @.@.@. .d : & m E f.f.h.f._ Q F F F F F F F R s.l.s.S 3 X X                   ",
"                    @.@.@.@. .f : $ m E h.h.h.f.E M 3 3 3 3 3 3 3 r H s._ A 3 X X                   ",
"                  @.@.@.@.@. .d : & m E f.] ' ^ I w : @ O o # $ 3 0 A E E M = . X                   ",
"                  @.@.@.@.@. .d : % t E f.^ J V k h d 1 : o & 0 m M A M m 8 & X                     ",
"                  @.@.@.@.@. .d > $ m E ] R y = g z | f 1 O 4 M E R M 4 * $ o                       ",
"                  ..O.O.O.O.| s : $ r P ^ Z 8 o 1 f +.c 1 + 4 V E R m % X .                         ",
"                    { { { { z a @ # 4 t A r 3 X < d { s > o & q V m 0 % X X                         ",
"                            1 @ O X % = 4 = %         ; + X # & 3 = & o                             ",
"                              . . . . X X . .         X . X . . X X .                               ",
"                              . . . . . . .             . . . . . X X                               ",
"                                  X . . .                 . . . .                                   ",
"                                                                                                    ",
"                                                                                                    ",
"                                                                                                    ",
"                                                                                                    ",
"                                                                                                    "
};
