/* XPM */
static char *b8bac5535f214993a9a848740d58bc8decSsZfEBYweSq9qJ[] = {
/* columns rows colors chars-per-pixel */
"50 50 109 2 ",
"   c #353E50",
".  c #363F51",
"X  c #363F52",
"o  c #364052",
"O  c #374154",
"+  c #384154",
"@  c #394357",
"#  c #3A4457",
"$  c #3B4558",
"%  c #3B4559",
"&  c #3B465A",
"*  c #3D475C",
"=  c #3E495D",
"-  c #3F4A5E",
";  c #3F4A5F",
":  c #404B5F",
">  c #404B60",
",  c #404C61",
"<  c #414C62",
"1  c #424C62",
"2  c #424E64",
"3  c #434F65",
"4  c #444F66",
"5  c #435066",
"6  c #445066",
"7  c #445067",
"8  c #465168",
"9  c #475269",
"0  c #46536A",
"q  c #47536C",
"w  c #48546A",
"e  c #48546B",
"r  c #49546B",
"t  c #48546D",
"y  c #49566D",
"u  c #4A566D",
"i  c #49566F",
"p  c #4B576F",
"a  c #4B586F",
"s  c #4B5770",
"d  c #4B5871",
"f  c #4B5872",
"g  c #4D5972",
"h  c #4C5973",
"j  c #4D5A74",
"k  c #4F5C74",
"l  c #4F5C77",
"z  c #4F5D77",
"x  c #4F5D78",
"c  c #505C74",
"v  c #515E76",
"b  c #525E77",
"n  c #525E78",
"m  c #515F7A",
"M  c #515F7B",
"N  c #525F7B",
"B  c #526079",
"V  c #53617B",
"C  c #52607D",
"Z  c #55627D",
"A  c #54617E",
"S  c #57657F",
"D  c #58657F",
"F  c #546380",
"G  c #556481",
"H  c #576580",
"J  c #596680",
"K  c #596681",
"L  c #596782",
"P  c #586684",
"I  c #586685",
"U  c #586785",
"Y  c #5B6883",
"T  c #596885",
"R  c #5C6A86",
"E  c #5A6988",
"W  c #5B6A89",
"Q  c #5C6B8B",
"!  c #5E6C88",
"~  c #5E6C89",
"^  c #5E6D8C",
"/  c #606F8B",
"(  c #606F8D",
")  c #606F8F",
"_  c #62708D",
"`  c #62718E",
"'  c #627191",
"]  c #637292",
"[  c #637392",
"{  c #657391",
"}  c #647493",
"|  c #657494",
" . c #677695",
".. c #677696",
"X. c #677796",
"o. c #677797",
"O. c #687897",
"+. c #697897",
"@. c #697898",
"#. c #697999",
"$. c #6A7999",
"%. c #6B7B9A",
"&. c #6C7B9A",
"*. c #6C7C9C",
"=. c #6D7D9C",
"-. c #6E7D9D",
";. c #6E7E9D",
":. c #6E7E9E",
">. c #6F7F9F",
/* pixels */
"3 3 ; %                                         @ : 3 : @ o                                         ",
"3 3 ; %           X           X         X X     # % 4 : @         X                                 ",
"3 3 6 6 9 9 9 9 8 8 8 8 8 8 8 8 8 8 8 8 8 8 8 8 8 4 4 6 6 9 9 9 8 8 8 8 8 8 t 8 t 8 8 8 8 8 8 9 t 8 ",
"3 3 u v S J J J J J J Y Y D J J J J J J I J J D v g 4 e v H J J J J J J J J H J J J J J J J J J J J ",
"2 5 z R O.&.&.&.*.*.&.*.%.%.%.%.*.*.*.*.@.*.*.&.~ B 6 g R @.&.&.&.&.&.&.&.&.&.*.*.@.*.*.&.&.*.*.&.*.",
"5 3 z ~ *.*.*.&.%.o.o.o.@.%.O.%.@.&.o.o.@.>.*.*./ B 6 z ~ *.>.*.*.o.o.*.@.&.o.@.&.*.o.o.@.@.*.*.*.*.",
"2 6 v ~ *.*.O.} [ ' [ [ } [ [ [  .[ [ [ } X.*.>./ B 5 v ~ *.&.O.| | [ [  .[ [ [ [ [ [ [  .{  .*.>.>.",
"6 2 x ~ *.%.} ^ W Q Q ~ ~ W Q Q W W ~ W ~ { o.>.~ N 5 z ~ %.@.O.Q E Q W W ~ W W W W W ~ ~ Q [ o.>.>.",
": : a S / ~ J A N N N C C A H C C A C B A J ~ / J d 2 e A _ / D V N N A C G F G N N N N N B J R  ./ ",
"% % 2 9 c g s q 9 9 9 q d j j d u 8 8 8 8 u g z e 2 $ 2 u a g u e 8 8 8 t u g j d u 9 9 9 q d g c c ",
"+ o + # % % % @ % @ % & > 7 9 ; * % @ @ % % % % # + o + % % $ $ @ @ @ @ % > 4 3 3 % @ @ % @ # % * % ",
"; ; ; ; ; : : > > > > > > > 5 2 > > ; ; ; : > > : : : : : : : : : : : : > 2 4 3 3 3 ; ; ; 2 ; > > > ",
"v v v v v v v v v v v c u 9 9 u g v v N v N v v v N N v v v v v v v v N v a 8 6 t g v N N N v v v N ",
"_ [ } } { { { { { { } ~ N u e B ~ [ } _ { { { { { { _ { { { { { } } { { ~ V u e z R } [ } } { { } _ ",
"*.&.*.*.;.;.&.&.*.>.*.O.D d u H X.>.>.&.*.*.*.&.*.&.*.*.*.&.>.&.*.*.>.*. .J a u Y { &.>.%.%.*.*.&.&.",
"X.}  .} O.{ { @.o.@.>.@.D g u S { >.&.O.} { o.X.{ O.| { X.X.{ X.O.O.&.*.o.J a a D ` >.*. .o. .[ @.} ",
"^ ^ ^ Q ^ Q ) Q [ O.*. .R u t J { >.X.{ Q ^ ' ^ ^ ^ ^ ^ ^ ^ ^ ) ^ [ o.*.@.J s u H } *.O.[ Q ) Q ^ ^ ",
"W W W E W W W E ~ } %. .H u u J _ O.} ~ E E W I W W W I W W W W W Q [ @.o.H u u S [ &.} ) I W W W W ",
"W W E E W W E E Q [ [ ^ C u 8 j S W R W E E E W W W I W E E W W W Q ' [ ^ C u t C ^  .[ Q W E W W W ",
"I W E E E W E W W W ^ R N u 8 u g N C H E E E W W W W W E W W I W W Q ' ~ x t t z I ~ ~ Q E E W W R ",
"I W I I I I I I I I I F g 8 6 6 2 3 d N I I I I I I I I I I I I I I I I A c 9 4 d C I I I I I I I I ",
"x C x x f j j f d j j u 9 1 = % ; ; 4 q j g j j x x N x j d j j s g j s 8 9 1 1 9 u j d s j j f d j ",
"i s q 3 < < 3 > > > > > % % @ $ @ % % ; 2 > > > 3 q s q 7 < > > > 2 > 1 2 % $ $ & > > 2 < > < > > > ",
"3 3 > % X X     O o     . . . o       o       O @ > 3 > % O     X X X X X   o o o   o   X X X X     ",
"3 3 5 9 u u 9 e e e e e e e e e w w e e q q u q 9 3 5 6 e e e q t u 8 8 e e 8 e e e e e u u u q t u ",
"3 3 a z D R J R R I R Y Y R Y R Y R Y ! R Y R R B d 5 u B J Y R R I R R Y R Y R R Y R Y J J R I I R ",
"3 3 x ~ &.>.*.>.*.>.*.*.&.>.&.*.;.;.>.&.;.;.>.&.~ x 5 x / &.*.>.>.>.*.*.>.>.;.>.*.*.*.>.*.>.*.>.*.>.",
"3 3 z ~ %.*.%.%.@.@.@.o.&.O.O.&.O.O.O.O.O.&.*.>._ B 5 v ~ &.*.&.@.@.@.o.O.O.O.+.O.@.@.@.@.&.%.*.*.>.",
"3 3 v ~ &.%.O.[ [ [ [ ' ' ' ' ' ` [ [ ' [ o.*.*./ B 5 z ~ *.&.@.[ [ ' ' ' ' [ [ { [ [ ' [ [  .%.>.>.",
"3 5 x ~ *.&.} Q W ~ W W W W W W ~ ~ W W Q [ @.*./ v 6 v ~ &.%.} W E W W W W W W / R W W W W [ o.>.>.",
"3 3 j R o.[ [ R I I G C I I E E E E I W W ) } @.R N 5 x R O.O.~ ~ E E E E E W I W W I W W W [  .&.%.",
"3 3 j J ^ [ ^ W I C j N N I E E E E R W ~ ^ ^ [ J g 5 g H ^ [ ^ W E E E E E W W I W I W W W W ^ [ [ ",
"3 3 u N ~ ~ E W G x q s x I W W ~ ~ I Q W W Q Q N s 7 d N ~ ~ W W W W E W W I W W W W W W W W Q W Q ",
"> 2 9 s N N N N j q 3 7 s x G N N N N N N N N N j q > 9 u N N N N N G x C C F F C B N N x N F N C C ",
"* % > 3 9 8 t 8 7 > * > 7 s j s t t 8 8 9 q q 8 3 > & > 4 9 8 9 q t 9 7 9 d d g s q 9 q q 9 9 7 9 9 ",
"O   O O % @ @ # @ X @ @ > 3 9 > * @ @ @ @ @ @ @ @ O O O @ @ @ @ @ @ @ @ % 2 9 6 > ; % @ @ @ % @ % O ",
"> > : : * : : : = : ; ; > 3 < > > : : : ; ; > > > > : : ; ; : : > > : : : > 4 4 1 : : : > > > ; > ; ",
"v z V v v v v v v v B z u 9 7 s c v v v v v z v z z V B v v v V N v v N g u 9 8 u c v V x x z z v v ",
"{ } } } _ } { { _ O._ _ C t q N / _ } } { { [ { { } } { / } { { /  .{ { / A u 8 V R { { } } [ _ [ [ ",
"&.*.&.&.*.*.;.&.&.&.*. .R d t H } >.;.*.*.&.*.*.@.*.&.&.*.&.;.&.*.*.*.>.o.J u u J _ ;.;.;.*.*.*.*.*.",
"o.} } } o.o.} } @.&.*.@.Y a u H [ *.*.@.O.} [ o.} O.} } } o.} } [ O.%.>.O.L a t D } *.*.@. .{ o.} O.",
"^ ) ^ Q ^ ^ ^ Q ` O.*. .S a t H } *.O.[ ^ ^ ^ ^ ^ / ^ Q ^ ) ^ Q Q [ O.*.O.Y a u D } *. . .^ ^ ^ ^ Q ",
"W W W E W R W W / [ %.O.H d u S [ *.} ^ W W W W W W W W W W W E Q ~ [ %.[ S a u D } &. .^ W W I W E ",
"W W W U W W U W ~ [ [ ^ S t t B ^ [ [ Q W R W I W W W W I W W W Q Q [ [ ! S e q B ^ X./ W W W W W W ",
"U W W W W W W W W W ^ R x t q z U ^ ^ W W W E W E W W E W W W W R W Q Q W M t q x I ^ Q W W W W W W ",
"I I I I W U I I I W I F z 9 6 z F I U R I I I W I I I I I W I I I I U Q C x q q j F W W I W I I U U ",
"C x x C x C C x C x N x a 9 6 g x C C x x x x C C x x C x x C x C x C z x t 9 7 s x x C N x N z C x ",
"d i s d i s d s d d d s 6 5 5 q t i d i s j d i d i s d d i d s d a d d t t 7 5 9 q i s d s s s i u ",
"5 3 3 3 3 3 3 3 3 3 3 3 3 3 3 3 3 3 3 3 3 3 3 3 3 3 3 3 3 3 3 3 5 3 3 3 3 3 3 3 3 3 3 3 3 3 3 3 3 3 ",
"3 3 3 3 3 3 3 3 3 3 3 3 3 3 3 3 3 3 3 3 3 3 3 3 3 3 3 3 3 3 3 3 3 3 3 3 3 3 3 3 3 3 3 3 3 3 3 3 3 3 "
};
